<svg id="Layer_1" data-name="Layer 1" xmlns="http://www.w3.org/2000/svg" xmlns:xlink="http://www.w3.org/1999/xlink" viewBox="0 0 512 512"><defs><pattern id="USGS_8_Sewage_Disposal" data-name="USGS 8 Sewage Disposal" width="72" height="74.8" patternTransform="translate(-309.72 630.2) scale(2.7 2.7)" patternUnits="userSpaceOnUse" viewBox="0 0 72 74.8"><rect width="72" height="74.8" fill="none"/><line y1="73.95" x2="72" y2="73.95" fill="none" stroke="#1f191a" stroke-linecap="square" stroke-width="0.3"/><line y1="72.25" x2="72" y2="72.25" fill="none" stroke="#1f191a" stroke-linecap="square" stroke-width="0.3"/><line y1="70.55" x2="72" y2="70.55" fill="none" stroke="#1f191a" stroke-linecap="square" stroke-width="0.3"/><line y1="68.85" x2="72" y2="68.85" fill="none" stroke="#1f191a" stroke-linecap="square" stroke-width="0.3"/><line y1="67.15" x2="72" y2="67.15" fill="none" stroke="#1f191a" stroke-linecap="square" stroke-width="0.3"/><line y1="65.45" x2="72" y2="65.45" fill="none" stroke="#1f191a" stroke-linecap="square" stroke-width="0.3"/><line y1="63.75" x2="72" y2="63.75" fill="none" stroke="#1f191a" stroke-linecap="square" stroke-width="0.3"/><line y1="62.05" x2="72" y2="62.05" fill="none" stroke="#1f191a" stroke-linecap="square" stroke-width="0.3"/><line y1="60.35" x2="72" y2="60.35" fill="none" stroke="#1f191a" stroke-linecap="square" stroke-width="0.3"/><line y1="58.65" x2="72" y2="58.65" fill="none" stroke="#1f191a" stroke-linecap="square" stroke-width="0.3"/><line y1="56.95" x2="72" y2="56.95" fill="none" stroke="#1f191a" stroke-linecap="square" stroke-width="0.3"/><line y1="55.25" x2="72" y2="55.25" fill="none" stroke="#1f191a" stroke-linecap="square" stroke-width="0.3"/><line y1="53.55" x2="72" y2="53.55" fill="none" stroke="#1f191a" stroke-linecap="square" stroke-width="0.3"/><line y1="51.85" x2="72" y2="51.85" fill="none" stroke="#1f191a" stroke-linecap="square" stroke-width="0.3"/><line y1="50.15" x2="72" y2="50.15" fill="none" stroke="#1f191a" stroke-linecap="square" stroke-width="0.3"/><line y1="48.45" x2="72" y2="48.45" fill="none" stroke="#1f191a" stroke-linecap="square" stroke-width="0.3"/><line y1="46.75" x2="72" y2="46.75" fill="none" stroke="#1f191a" stroke-linecap="square" stroke-width="0.3"/><line y1="45.05" x2="72" y2="45.05" fill="none" stroke="#1f191a" stroke-linecap="square" stroke-width="0.3"/><line y1="43.35" x2="72" y2="43.35" fill="none" stroke="#1f191a" stroke-linecap="square" stroke-width="0.3"/><line y1="41.65" x2="72" y2="41.65" fill="none" stroke="#1f191a" stroke-linecap="square" stroke-width="0.3"/><line y1="39.95" x2="72" y2="39.95" fill="none" stroke="#1f191a" stroke-linecap="square" stroke-width="0.3"/><line y1="38.25" x2="72" y2="38.25" fill="none" stroke="#1f191a" stroke-linecap="square" stroke-width="0.3"/><line y1="36.55" x2="72" y2="36.55" fill="none" stroke="#1f191a" stroke-linecap="square" stroke-width="0.3"/><line y1="34.85" x2="72" y2="34.85" fill="none" stroke="#1f191a" stroke-linecap="square" stroke-width="0.3"/><line y1="33.15" x2="72" y2="33.15" fill="none" stroke="#1f191a" stroke-linecap="square" stroke-width="0.3"/><line y1="31.45" x2="72" y2="31.45" fill="none" stroke="#1f191a" stroke-linecap="square" stroke-width="0.3"/><line y1="29.75" x2="72" y2="29.75" fill="none" stroke="#1f191a" stroke-linecap="square" stroke-width="0.3"/><line y1="28.05" x2="72" y2="28.05" fill="none" stroke="#1f191a" stroke-linecap="square" stroke-width="0.3"/><line y1="26.35" x2="72" y2="26.35" fill="none" stroke="#1f191a" stroke-linecap="square" stroke-width="0.3"/><line y1="24.65" x2="72" y2="24.65" fill="none" stroke="#1f191a" stroke-linecap="square" stroke-width="0.3"/><line y1="22.95" x2="72" y2="22.95" fill="none" stroke="#1f191a" stroke-linecap="square" stroke-width="0.3"/><line y1="21.25" x2="72" y2="21.25" fill="none" stroke="#1f191a" stroke-linecap="square" stroke-width="0.3"/><line y1="19.55" x2="72" y2="19.55" fill="none" stroke="#1f191a" stroke-linecap="square" stroke-width="0.3"/><line y1="17.85" x2="72" y2="17.85" fill="none" stroke="#1f191a" stroke-linecap="square" stroke-width="0.3"/><line y1="16.15" x2="72" y2="16.15" fill="none" stroke="#1f191a" stroke-linecap="square" stroke-width="0.3"/><line y1="14.45" x2="72" y2="14.45" fill="none" stroke="#1f191a" stroke-linecap="square" stroke-width="0.3"/><line y1="12.75" x2="72" y2="12.75" fill="none" stroke="#1f191a" stroke-linecap="square" stroke-width="0.3"/><line y1="11.05" x2="72" y2="11.05" fill="none" stroke="#1f191a" stroke-linecap="square" stroke-width="0.3"/><line y1="9.35" x2="72" y2="9.35" fill="none" stroke="#1f191a" stroke-linecap="square" stroke-width="0.3"/><line y1="7.65" x2="72" y2="7.65" fill="none" stroke="#1f191a" stroke-linecap="square" stroke-width="0.3"/><line y1="5.95" x2="72" y2="5.95" fill="none" stroke="#1f191a" stroke-linecap="square" stroke-width="0.3"/><line y1="4.25" x2="72" y2="4.25" fill="none" stroke="#1f191a" stroke-linecap="square" stroke-width="0.3"/><line y1="2.55" x2="72" y2="2.55" fill="none" stroke="#1f191a" stroke-linecap="square" stroke-width="0.3"/><line y1="0.85" x2="72" y2="0.85" fill="none" stroke="#1f191a" stroke-linecap="square" stroke-width="0.3"/><line x1="-21.5" y1="7.65" x2="-10.25" y2="7.65" fill="none" stroke="#1f191a" stroke-linecap="square" stroke-width="0.3"/></pattern></defs><title>share-other</title><path d="M511.37,281.08c0,125.89-102.08,228.21-228,228.21C157.63,509.28,55.61,407,55.61,281.08s102-227.58,227.75-227.58C409.29,53.49,511.37,155.33,511.37,281.08Z" fill="url(#USGS_8_Sewage_Disposal)"/><path d="M494.45,264.15c0,125.89-102.08,228.21-228,228.21C140.71,492.36,38.7,390,38.7,264.15s102-227.58,227.75-227.58C392.37,36.57,494.45,138.4,494.45,264.15Z" fill="url(#USGS_8_Sewage_Disposal)"/><path d="M469.08,245.11c0,125.89-102.08,228.21-228,228.21C115.34,473.32,13.32,371,13.32,245.11s102-227.58,227.75-227.58C367,17.53,469.08,119.36,469.08,245.11Z" fill="#1f191a"/><path d="M462.73,234.53c0,125.89-102.08,228.21-228,228.21C109,462.74,7,360.41,7,234.53S109,6.95,234.73,6.95C360.65,6.95,462.73,108.78,462.73,234.53Z" fill="#333"/><path d="M469.08,245.11c0,125.89-102.08,228.21-228,228.21C115.34,473.32,13.32,371,13.32,245.11s102-227.58,227.75-227.58C367,17.53,469.08,119.36,469.08,245.11Z" fill="none" stroke="#1f191a" stroke-width="2.12"/><path d="M458.5,232.41c0,125.89-102.08,228.21-228,228.21C104.77,460.62,2.75,358.3,2.75,232.41S104.77,4.83,230.5,4.83C356.43,4.83,458.5,106.67,458.5,232.41Z" fill="#fff"/><path d="M458.5,232.41c0,125.89-102.08,228.21-228,228.21C104.77,460.62,2.75,358.3,2.75,232.41S104.77,4.83,230.5,4.83C356.43,4.83,458.5,106.67,458.5,232.41Z" fill="#fff"/><path d="M458.5,232.41c0,125.89-102.08,228.21-228,228.21C104.77,460.62,2.75,358.3,2.75,232.41S104.77,4.83,230.5,4.83C356.43,4.83,458.5,106.67,458.5,232.41Z" fill="none" stroke="#1f191a" stroke-width="4.23"/><path d="M168.1,196a34.91,34.91,0,0,1,18.4,5.5L261,144.36a34.71,34.71,0,1,1,11.27,13.9L199,214.51a35.75,35.75,0,0,1,4.51,17.16,36.68,36.68,0,0,1-4.82,17.66l73.91,57.36a35.21,35.21,0,0,1,20.47-6.63,35.64,35.64,0,1,1-35.49,35.57,34,34,0,0,1,3.5-15l-75-58.74a32,32,0,0,1-18,5,35.44,35.44,0,0,1,0-70.89Z" fill="#060606"/></svg>